<svg width="944" height="250" viewBox="0 0 944 250" fill="none" xmlns="http://www.w3.org/2000/svg">
<path d="M532.608 243.535H574.731C575.141 243.564 575.552 243.51 575.94 243.376C576.328 243.241 576.684 243.029 576.988 242.753C577.291 242.477 577.534 242.142 577.704 241.769C577.873 241.396 577.965 240.993 577.973 240.583V124.561C577.973 91.6608 594.18 74.325 622.161 74.325C650.142 74.325 666.053 91.6608 666.053 124.561V240.598C666.061 241.007 666.153 241.411 666.322 241.784C666.492 242.157 666.735 242.492 667.038 242.768C667.342 243.044 667.698 243.256 668.086 243.39C668.474 243.525 668.885 243.579 669.295 243.55H711.418C711.828 243.579 712.239 243.525 712.627 243.39C713.015 243.256 713.371 243.044 713.675 242.768C713.978 242.492 714.222 242.157 714.391 241.784C714.56 241.411 714.652 241.007 714.66 240.598V124.856C714.66 75.2033 686.975 31.7273 622.154 31.7273C557.333 31.7273 529.366 75.2033 529.366 124.856V240.598C529.376 241.006 529.469 241.408 529.639 241.779C529.81 242.151 530.054 242.484 530.357 242.758C530.66 243.033 531.015 243.243 531.402 243.377C531.789 243.51 532.199 243.564 532.608 243.535Z" fill="#00A868"/>
<path d="M242.736 246.184C258.055 246.184 268.068 244.42 272.486 242.657C273.145 242.394 273.716 241.952 274.134 241.38C274.551 240.808 274.799 240.13 274.847 239.424V204.738C274.847 202.679 273.959 201.505 271.31 201.505C269.245 201.505 263.354 202.679 258.64 202.679C240.375 202.679 232.427 195.926 232.427 180.059V82.2582H271.31C272.167 82.2505 272.987 81.9075 273.593 81.303C274.199 80.6984 274.543 79.8807 274.551 79.0258V41.1291C274.543 40.2742 274.199 39.4565 273.593 38.8519C272.987 38.2474 272.167 37.9044 271.31 37.8967H230.955V4.9963C230.955 1.46863 229.474 0 226.825 0H187.055C183.821 0 182.348 1.47601 182.348 4.9963V185.07C182.348 228.849 206.792 246.184 242.736 246.184Z" fill="#00A868"/>
<path d="M73.6571 248.53C121.087 248.53 154.966 219.446 154.966 181.549C154.966 138.951 126.682 126.619 88.0955 118.39L68.943 114.28C54.5121 111.047 46.5565 104.287 46.5565 92.8332C46.5565 78.1469 61.2835 70.2133 81.6127 70.2133C110.186 70.2133 129.627 83.1358 132.572 83.1358C133.391 83.0816 134.18 82.8073 134.855 82.3422C135.53 81.877 136.066 81.2383 136.406 80.4938L144.065 51.9993C145.546 48.1764 145.242 47.2982 142.585 45.8296C125.498 37.0178 107.233 32.0215 81.3092 32.0215C33.2948 32.0215 0 59.6377 0 96.3609C0 131.047 26.812 150.117 65.1244 158.353L84.5655 162.464C100.18 165.697 108.987 171.866 108.987 185.084C108.987 198.597 98.3822 210.346 73.3389 210.346C37.9867 210.346 13.8315 196.25 10.0055 196.25C7.6447 196.25 6.76406 197.424 5.8834 201.239L0.873253 225.04C-0.606846 230.029 0.873257 233.261 4.11467 234.73C16.1997 241.483 49.1911 248.53 73.6571 248.53Z" fill="#00A868"/>
<path d="M395.04 207.698C364.106 207.698 335.836 184.487 335.836 140.716C335.836 96.945 364.114 74.2955 395.04 74.2955C426.263 74.2955 453.955 96.9154 453.955 140.716C453.955 184.783 426.263 207.698 395.04 207.698ZM395.04 250C456.901 250 501.97 203.882 501.97 140.716C501.97 77.5502 456.901 31.7273 395.04 31.7273C333.468 31.7273 288.103 77.5575 288.103 140.716C288.103 203.875 333.468 250 395.04 250Z" fill="#00A868"/>
<path d="M944 138.369C944 73.4247 906.583 31.7273 847.054 31.7273C791.084 31.7273 742.773 74.6203 742.773 139.838C742.773 209.461 792.261 250 845.285 250C889.769 250 915.434 232.517 931.308 211.225C934.38 207.1 935.009 205.321 935.009 204.17C935.009 203.019 934.269 202.118 931.597 199.742L913.037 183.587C908.596 179.771 907.116 178.591 905.636 178.591C904.156 178.591 903.275 179.476 902.099 180.945C889.429 197.985 871.757 207.675 847.897 207.675C817.8 207.675 797.744 187.284 792.653 154.207H928.592C938.072 154.229 944 151.255 944 138.369ZM845.307 72.5612C877.455 72.5612 894.469 94.1922 895.394 118.096H793.371C798.958 92.4283 816.431 72.5612 845.307 72.5612Z" fill="#00A868"/>
</svg>
