<svg width="18" height="18" viewBox="0 0 18 18" fill="none" xmlns="http://www.w3.org/2000/svg">
<path d="M5.36364 5.36364V3.18182C5.36364 2.60316 5.59351 2.04821 6.00268 1.63904C6.41185 1.22987 6.9668 1 7.54545 1H10.4545C11.0332 1 11.5882 1.22987 11.9973 1.63904C12.4065 2.04821 12.6364 2.60316 12.6364 3.18182C12.6364 3.76047 12.4065 4.31543 11.9973 4.7246C11.5882 5.13377 11.0332 5.36364 10.4545 5.36364H1V13.3636C1 14.3281 1.38312 15.253 2.06507 15.9349C2.74702 16.6169 3.67194 17 4.63636 17H13.3636C14.3281 17 15.253 16.6169 15.9349 15.9349C16.6169 15.253 17 14.3281 17 13.3636V5.36364H14.3333" stroke="#20252A" stroke-width="1.5"/>
</svg>
