<svg width="20" height="14" viewBox="0 0 20 14" fill="none" xmlns="http://www.w3.org/2000/svg">
<path d="M19.7656 1.32839L6.96614 13.7719C6.89184 13.8442 6.80361 13.9016 6.7065 13.9407C6.60938 13.9799 6.50529 14 6.40016 14C6.29503 14 6.19094 13.9799 6.09382 13.9407C5.99671 13.9016 5.90848 13.8442 5.83418 13.7719L0.234434 8.32787C0.0843285 8.18193 0 7.98401 0 7.77763C0 7.57125 0.0843285 7.37332 0.234434 7.22739C0.38454 7.08146 0.588127 6.99948 0.800409 6.99948C1.01269 6.99948 1.21628 7.08146 1.36638 7.22739L6.40016 12.1222L18.6336 0.227915C18.7837 0.0819832 18.9873 -1.53764e-09 19.1996 0C19.4119 1.53764e-09 19.6155 0.0819832 19.7656 0.227915C19.9157 0.373847 20 0.571773 20 0.778152C20 0.984531 19.9157 1.18246 19.7656 1.32839Z" fill="white"/>
</svg>
