<svg width="24" height="25" viewBox="0 0 24 25" fill="none" xmlns="http://www.w3.org/2000/svg">
<path d="M12.7477 2.12693C12.539 1.94883 12.274 1.85102 12 1.85102C11.726 1.85102 11.461 1.94883 11.2523 2.12693L2.25231 9.80191C2.12488 9.91068 2.02255 10.0459 1.95242 10.1983C1.88229 10.3507 1.84603 10.5166 1.84615 10.6844V22.6849C1.84615 22.8077 1.89478 22.9255 1.98134 23.0123C2.06789 23.0991 2.18528 23.1479 2.30769 23.1479H6.92308C7.04548 23.1479 7.16288 23.0991 7.24943 23.0123C7.33599 22.9255 7.38462 22.8077 7.38462 22.6849V16.2027C7.38462 15.5887 7.62775 14.9998 8.06052 14.5657C8.4933 14.1315 9.08027 13.8876 9.69231 13.8876H14.3114C14.6144 13.8876 14.9145 13.9475 15.1945 14.0638C15.4745 14.1801 15.7289 14.3507 15.9432 14.5657C16.1575 14.7806 16.3274 15.0358 16.4434 15.3167C16.5594 15.5976 16.6191 15.8986 16.6191 16.2027V22.6849C16.6191 22.8077 16.6677 22.9255 16.7543 23.0123C16.8408 23.0991 16.9582 23.1479 17.0806 23.1479H21.6923C21.8147 23.1479 21.9321 23.0991 22.0187 23.0123C22.1052 22.9255 22.1538 22.8077 22.1538 22.6849V10.6835C22.1538 10.5158 22.1175 10.3501 22.0474 10.1979C21.9773 10.0457 21.875 9.91058 21.7477 9.80191L12.7477 2.12693ZM10.0569 0.716583C10.5993 0.253994 11.2881 0 12 0C12.7119 0 13.4007 0.253994 13.9431 0.716583L22.9431 8.39064C23.2743 8.67315 23.5404 9.02453 23.7229 9.42043C23.9054 9.81634 24 10.2473 24 10.6835V22.6849C24 23.2989 23.7569 23.8878 23.3241 24.3219C22.8913 24.7561 22.3043 25 21.6923 25H17.0806C16.4686 25 15.8816 24.7561 15.4488 24.3219C15.0161 23.8878 14.7729 23.2989 14.7729 22.6849V16.2027C14.7729 16.0799 14.7243 15.9621 14.6377 15.8753C14.5512 15.7884 14.4338 15.7396 14.3114 15.7396H9.69231C9.5699 15.7396 9.45251 15.7884 9.36595 15.8753C9.2794 15.9621 9.23077 16.0799 9.23077 16.2027V22.6849C9.23077 23.2989 8.98764 23.8878 8.55486 24.3219C8.12209 24.7561 7.53511 25 6.92308 25H2.30769C1.69565 25 1.10868 24.7561 0.675907 24.3219C0.243131 23.8878 0 23.2989 0 22.6849V10.6835C2.4287e-05 10.2473 0.0945586 9.81634 0.277056 9.42043C0.459553 9.02453 0.725652 8.67315 1.05692 8.39064L10.0569 0.716583Z" fill="black"/>
</svg>
