<svg width="16" height="11" viewBox="0 0 16 11" fill="none" xmlns="http://www.w3.org/2000/svg">
<path d="M0 0.6875C0 0.505164 0.0766231 0.330295 0.213013 0.201364C0.349403 0.072433 0.534388 0 0.727273 0H13.8182C14.0111 0 14.1961 0.072433 14.3324 0.201364C14.4688 0.330295 14.5455 0.505164 14.5455 0.6875C14.5455 0.869836 14.4688 1.0447 14.3324 1.17364C14.1961 1.30257 14.0111 1.375 13.8182 1.375H0.727273C0.534388 1.375 0.349403 1.30257 0.213013 1.17364C0.0766231 1.0447 0 0.869836 0 0.6875ZM0 10.3125C0 10.1302 0.0766231 9.95529 0.213013 9.82636C0.349403 9.69743 0.534388 9.625 0.727273 9.625H12.3636C12.5565 9.625 12.7415 9.69743 12.8779 9.82636C13.0143 9.95529 13.0909 10.1302 13.0909 10.3125C13.0909 10.4948 13.0143 10.6697 12.8779 10.7986C12.7415 10.9276 12.5565 11 12.3636 11H0.727273C0.534388 11 0.349403 10.9276 0.213013 10.7986C0.0766231 10.6697 0 10.4948 0 10.3125ZM0.727273 4.8125C0.534388 4.8125 0.349403 4.88493 0.213013 5.01386C0.0766231 5.1428 0 5.31766 0 5.5C0 5.68234 0.0766231 5.8572 0.213013 5.98614C0.349403 6.11507 0.534388 6.1875 0.727273 6.1875H15.2727C15.4656 6.1875 15.6506 6.11507 15.787 5.98614C15.9234 5.8572 16 5.68234 16 5.5C16 5.31766 15.9234 5.1428 15.787 5.01386C15.6506 4.88493 15.4656 4.8125 15.2727 4.8125H0.727273Z" fill="black"/>
</svg>
