<svg width="18" height="16" viewBox="0 0 18 16" fill="none" xmlns="http://www.w3.org/2000/svg">
<path d="M10.7778 4.3329V2.55512C10.7778 2.08363 10.5905 1.63144 10.2571 1.29804C9.92373 0.964645 9.47155 0.777344 9.00005 0.777344H2.77783C2.30634 0.777344 1.85415 0.964645 1.52075 1.29804C1.18736 1.63144 1.00005 2.08363 1.00005 2.55512V13.2218C1.00005 13.6933 1.18736 14.1455 1.52075 14.4789C1.85415 14.8123 2.30634 14.9996 2.77783 14.9996H9.00005C9.47155 14.9996 9.92373 14.8123 10.2571 14.4789C10.5905 14.1455 10.7778 13.6933 10.7778 13.2218V11.444" stroke="#BCBCBC" stroke-width="1.5" stroke-linecap="round" stroke-linejoin="round"/>
<path d="M6.33333 7.88932H17M17 7.88932L14.3333 5.22266M17 7.88932L14.3333 10.556" stroke="#BCBCBC" stroke-width="1.5" stroke-linecap="round" stroke-linejoin="round"/>
</svg>
