<svg width="17" height="4" viewBox="0 0 17 4" fill="none" xmlns="http://www.w3.org/2000/svg">
<path d="M4.33317 2C4.33317 2.53043 4.11368 3.03914 3.72298 3.41421C3.33228 3.78929 2.80237 4 2.24984 4C1.6973 4 1.1674 3.78929 0.776698 3.41421C0.385997 3.03914 0.166504 2.53043 0.166504 2C0.166504 1.46957 0.385997 0.96086 0.776698 0.585787C1.1674 0.210714 1.6973 0 2.24984 0C2.80237 0 3.33228 0.210714 3.72298 0.585787C4.11368 0.96086 4.33317 1.46957 4.33317 2ZM10.5832 2C10.5832 2.53043 10.3637 3.03914 9.97298 3.41421C9.58228 3.78929 9.05237 4 8.49984 4C7.9473 4 7.4174 3.78929 7.0267 3.41421C6.636 3.03914 6.4165 2.53043 6.4165 2C6.4165 1.46957 6.636 0.96086 7.0267 0.585787C7.4174 0.210714 7.9473 0 8.49984 0C9.05237 0 9.58228 0.210714 9.97298 0.585787C10.3637 0.96086 10.5832 1.46957 10.5832 2ZM14.7498 4C15.3024 4 15.8323 3.78929 16.223 3.41421C16.6137 3.03914 16.8332 2.53043 16.8332 2C16.8332 1.46957 16.6137 0.96086 16.223 0.585787C15.8323 0.210714 15.3024 0 14.7498 0C14.1973 0 13.6674 0.210714 13.2767 0.585787C12.886 0.96086 12.6665 1.46957 12.6665 2C12.6665 2.53043 12.886 3.03914 13.2767 3.41421C13.6674 3.78929 14.1973 4 14.7498 4Z" fill="black"/>
</svg>
