<svg width="24" height="24" viewBox="0 0 24 24" fill="none" xmlns="http://www.w3.org/2000/svg">
<path d="M22.9541 9.9198L20.3079 2.41211H3.69253L1.10791 9.73519V21.4275H22.9541V9.9198ZM4.36945 3.33519H19.631L21.7848 9.42749H2.2156L4.36945 3.33519ZM21.9694 20.566H2.03099V10.3506H22.031L21.9694 20.566Z" fill="#111111" stroke="#111111" stroke-width="0.692308" stroke-linejoin="round"/>
<path d="M15.6904 13.0568L15.5978 12.9577C15.3367 12.6785 14.8986 12.6638 14.6193 12.9249C14.616 12.928 14.6128 12.9311 14.6095 12.9342L10.6503 16.7835L9.39103 15.5592C9.11689 15.2927 8.67859 15.2989 8.41206 15.573C8.40893 15.5762 8.40583 15.5795 8.40276 15.5827L8.31017 15.6818C8.05261 15.9572 8.06287 16.3881 8.33325 16.651L10.1677 18.4345C10.4364 18.6957 10.8642 18.6957 11.1329 18.4345L15.6673 14.026C15.9377 13.7631 15.948 13.3322 15.6904 13.0568Z" fill="#111111"/>
<path d="M12.4617 3.48828H11.5386V9.02674H12.4617V3.48828Z" fill="#D8D8D8" stroke="black" stroke-width="0.923077"/>
</svg>
