<svg width="32" height="31" viewBox="0 0 32 31" fill="none" xmlns="http://www.w3.org/2000/svg">
<path d="M29.8039 8.85858H23.3318C23.6639 8.64835 23.9787 8.4114 24.2729 8.15005C24.7167 7.75139 25.0742 7.26474 25.3231 6.72051C25.5719 6.17627 25.7068 5.58615 25.7192 4.987C25.7385 4.3279 25.6241 3.67178 25.383 3.05882C25.1419 2.44587 24.7793 1.88898 24.3173 1.42228C23.8553 0.955584 23.3036 0.588896 22.6961 0.344679C22.0886 0.100463 21.4381 -0.0161399 20.7843 0.00201351C20.1901 0.0145637 19.6047 0.150532 19.0649 0.401424C18.5252 0.652316 18.0425 1.01274 17.6471 1.46018C16.9204 2.32472 16.3617 3.31942 16 4.39234C15.6391 3.32022 15.0814 2.32609 14.3561 1.46177C13.9604 1.01365 13.4773 0.652701 12.937 0.40152C12.3966 0.150338 11.8106 0.0143313 11.2157 0.00201351C10.5615 -0.0170073 9.91045 0.0989005 9.30232 0.342628C8.69419 0.586356 8.14186 0.952765 7.6792 1.41938C7.21653 1.886 6.85329 2.443 6.61174 3.0562C6.37019 3.66941 6.25544 4.3259 6.27451 4.98541C6.28696 5.58456 6.42182 6.17469 6.67066 6.71892C6.91951 7.26316 7.27699 7.74981 7.72079 8.14847C8.01478 8.41019 8.32956 8.64716 8.66196 8.857H2.19608C1.90755 8.857 1.62186 8.91432 1.35531 9.02569C1.08877 9.13706 0.846607 9.3003 0.642662 9.50607C0.438717 9.71184 0.276988 9.95611 0.166717 10.2249C0.0564456 10.4937 -0.000205529 10.7818 5.60276e-07 11.0727V16.1336C5.60276e-07 16.7208 0.231373 17.284 0.643217 17.6993C1.05506 18.1145 1.61364 18.3478 2.19608 18.3478H2.5098V28.7859C2.5098 29.3731 2.74118 29.9363 3.15302 30.3515C3.56487 30.7667 4.12345 31 4.70588 31H27.2941C27.8766 31 28.4351 30.7667 28.847 30.3515C29.2588 29.9363 29.4902 29.3731 29.4902 28.7859V18.3478H29.8039C30.3864 18.3478 30.9449 18.1145 31.3568 17.6993C31.7686 17.284 32 16.7208 32 16.1336V11.0727C32 10.4855 31.7686 9.92232 31.3568 9.50709C30.9449 9.09186 30.3864 8.85858 29.8039 8.85858ZM17.2188 7.1189C17.5718 5.20208 18.2055 3.67907 19.0526 2.71434C19.2792 2.46212 19.555 2.25964 19.8626 2.11951C20.1703 1.97939 20.5032 1.90462 20.8408 1.89985H20.9271C21.3173 1.8999 21.7036 1.97887 22.063 2.13211C22.4225 2.28535 22.7478 2.50973 23.0197 2.79198C23.2916 3.07422 23.5045 3.40859 23.646 3.7753C23.7874 4.14201 23.8545 4.5336 23.8431 4.9269C23.8378 5.26758 23.7629 5.6035 23.6231 5.9137C23.4833 6.2239 23.2816 6.50172 23.0306 6.72984C21.349 8.22597 18.4973 8.67354 16.9945 8.80323C17.0337 8.34617 17.098 7.76416 17.2188 7.1189ZM9.01177 2.76178C9.55928 2.21178 10.3001 1.902 11.0729 1.89985H11.1592C11.4971 1.90522 11.8303 1.98073 12.138 2.12168C12.4456 2.26263 12.7212 2.466 12.9475 2.71908C14.4314 4.41448 14.8753 7.2897 15.0039 8.80481C14.5506 8.76527 13.9733 8.69727 13.3396 8.57865C11.4384 8.22597 9.92784 7.58387 8.97098 6.72826C8.71957 6.5007 8.51749 6.22324 8.3774 5.91327C8.23731 5.6033 8.16223 5.26749 8.15686 4.9269C8.14604 4.52639 8.21626 4.12785 8.36324 3.75561C8.51023 3.38336 8.73089 3.04521 9.01177 2.76178ZM1.88235 16.1336V11.0727C1.88235 10.9888 1.91541 10.9084 1.97424 10.8491C2.03308 10.7897 2.11287 10.7564 2.19608 10.7564H15.0588V16.4499H2.19608C2.11287 16.4499 2.03308 16.4166 1.97424 16.3573C1.91541 16.298 1.88235 16.2175 1.88235 16.1336ZM4.39216 28.7859V18.3478H15.0588V29.1022H4.70588C4.62268 29.1022 4.54288 29.0688 4.48405 29.0095C4.42521 28.9502 4.39216 28.8697 4.39216 28.7859ZM27.6078 28.7859C27.6078 28.8697 27.5748 28.9502 27.516 29.0095C27.4571 29.0688 27.3773 29.1022 27.2941 29.1022H16.9412V18.3478H27.6078V28.7859ZM30.1176 16.1336C30.1176 16.2175 30.0846 16.298 30.0258 16.3573C29.9669 16.4166 29.8871 16.4499 29.8039 16.4499H16.9412V10.7564H29.8039C29.8871 10.7564 29.9669 10.7897 30.0258 10.8491C30.0846 10.9084 30.1176 10.9888 30.1176 11.0727V16.1336Z" fill="black"/>
</svg>
