<svg width="39" height="45" viewBox="0 0 39 45" fill="none" xmlns="http://www.w3.org/2000/svg">
<path fill-rule="evenodd" clip-rule="evenodd" d="M14.4038 22.4038C14.5315 22.2758 14.6832 22.1742 14.8501 22.105C15.0171 22.0357 15.1961 22 15.3769 22C15.5577 22 15.7367 22.0357 15.9037 22.105C16.0707 22.1742 16.2224 22.2758 16.3501 22.4038L19.5004 25.5569L22.6507 22.4038C22.9087 22.1457 23.2588 22.0007 23.6238 22.0007C23.9888 22.0007 24.3388 22.1457 24.5969 22.4038C24.855 22.6619 25 23.0119 25 23.3769C25 23.7419 24.855 24.092 24.5969 24.3501L21.4439 27.5004L24.5969 30.6507C24.855 30.9087 25 31.2588 25 31.6238C25 31.9888 24.855 32.3388 24.5969 32.5969C24.3388 32.855 23.9888 33 23.6238 33C23.2588 33 22.9087 32.855 22.6507 32.5969L19.5004 29.4439L16.3501 32.5969C16.092 32.855 15.7419 33 15.3769 33C15.0119 33 14.6619 32.855 14.4038 32.5969C14.1457 32.3388 14.0007 31.9888 14.0007 31.6238C14.0007 31.2588 14.1457 30.9087 14.4038 30.6507L17.5569 27.5004L14.4038 24.3501C14.2758 24.2224 14.1742 24.0707 14.105 23.9037C14.0357 23.7367 14 23.5577 14 23.3769C14 23.1961 14.0357 23.0171 14.105 22.8501C14.1742 22.6832 14.2758 22.5315 14.4038 22.4038Z" fill="black"/>
<path d="M19.5 2.8125C21.347 2.8125 23.1184 3.55329 24.4245 4.87191C25.7306 6.19052 26.4643 7.97895 26.4643 9.84375V11.25H12.5357V9.84375C12.5357 7.97895 13.2694 6.19052 14.5755 4.87191C15.8816 3.55329 17.653 2.8125 19.5 2.8125ZM29.25 11.25V9.84375C29.25 7.23303 28.2228 4.72923 26.3943 2.88317C24.5658 1.03711 22.0859 0 19.5 0C16.9141 0 14.4342 1.03711 12.6057 2.88317C10.7772 4.72923 9.75 7.23303 9.75 9.84375V11.25H0V39.375C0 40.8668 0.586988 42.2976 1.63183 43.3525C2.67668 44.4074 4.09379 45 5.57143 45H33.4286C34.9062 45 36.3233 44.4074 37.3682 43.3525C38.413 42.2976 39 40.8668 39 39.375V11.25H29.25ZM2.78571 14.0625H36.2143V39.375C36.2143 40.1209 35.9208 40.8363 35.3984 41.3637C34.8759 41.8912 34.1674 42.1875 33.4286 42.1875H5.57143C4.83261 42.1875 4.12405 41.8912 3.60163 41.3637C3.07921 40.8363 2.78571 40.1209 2.78571 39.375V14.0625Z" fill="black"/>
</svg>
