<svg width="32" height="24" viewBox="0 0 32 24" fill="none" xmlns="http://www.w3.org/2000/svg">
<path d="M4.36781e-09 2.99892C4.36781e-09 2.20356 0.31607 1.44077 0.87868 0.878364C1.44129 0.315957 2.20435 0 3 0H21C21.7956 0 22.5587 0.315957 23.1213 0.878364C23.6839 1.44077 24 2.20356 24 2.99892V5.99784H26.04C26.4895 5.99824 26.9331 6.0996 27.3381 6.29443C27.7432 6.48926 28.0992 6.77257 28.38 7.12344L31.342 10.8221C31.7682 11.3543 32.0003 12.0157 32 12.6974V16.9939C32 17.7893 31.6839 18.552 31.1213 19.1144C30.5587 19.6769 29.7956 19.9928 29 19.9928H28C28 21.0533 27.5786 22.0703 26.8284 22.8202C26.0783 23.5701 25.0609 23.9914 24 23.9914C22.9391 23.9914 21.9217 23.5701 21.1716 22.8202C20.4214 22.0703 20 21.0533 20 19.9928H10C10.0012 20.5258 9.8957 21.0536 9.68985 21.5453C9.48399 22.0369 9.18189 22.4825 8.8013 22.8557C8.42071 23.229 7.96931 23.5224 7.47364 23.7188C6.97797 23.9151 6.44804 24.0104 5.91499 23.9991C5.38194 23.9878 4.85653 23.87 4.36966 23.6528C3.88279 23.4356 3.44427 23.1232 3.0799 22.7341C2.71552 22.345 2.43263 21.8871 2.24787 21.3871C2.0631 20.8871 1.98019 20.3553 2.004 19.8229C1.4181 19.6167 0.910646 19.2339 0.551689 18.7271C0.192731 18.2204 -3.35039e-05 17.6148 4.36781e-09 16.9939L4.36781e-09 2.99892ZM2.588 17.9056C2.9496 17.3138 3.45902 16.8262 4.0662 16.4908C4.67337 16.1554 5.3574 15.9837 6.05105 15.9926C6.74471 16.0014 7.42412 16.1906 8.02251 16.5414C8.62089 16.8922 9.11767 17.3927 9.464 17.9935H20.536C20.8878 17.3863 21.3925 16.8817 22 16.5301V2.99892C22 2.7338 21.8946 2.47954 21.7071 2.29207C21.5196 2.1046 21.2652 1.99928 21 1.99928H3C2.73478 1.99928 2.48043 2.1046 2.29289 2.29207C2.10536 2.47954 2 2.7338 2 2.99892V16.9939C1.99984 17.1863 2.05524 17.3747 2.15954 17.5364C2.26384 17.6981 2.41261 17.8263 2.588 17.9056ZM24 15.9942C24.7021 15.9943 25.3919 16.179 25.9999 16.53C26.608 16.8809 27.1129 17.3857 27.464 17.9935H29C29.2652 17.9935 29.5196 17.8882 29.7071 17.7007C29.8946 17.5133 30 17.259 30 16.9939V12.6954C29.9996 12.4686 29.922 12.2486 29.78 12.0717L26.82 8.37299C26.7265 8.25591 26.6078 8.16135 26.4728 8.09629C26.3378 8.03123 26.1899 7.99734 26.04 7.99712H24V15.9942ZM6 17.9935C5.46957 17.9935 4.96086 18.2042 4.58579 18.5791C4.21071 18.954 4 19.4626 4 19.9928C4 20.5231 4.21071 21.0316 4.58579 21.4065C4.96086 21.7815 5.46957 21.9921 6 21.9921C6.53043 21.9921 7.03914 21.7815 7.41421 21.4065C7.78929 21.0316 8 20.5231 8 19.9928C8 19.4626 7.78929 18.954 7.41421 18.5791C7.03914 18.2042 6.53043 17.9935 6 17.9935ZM24 17.9935C23.4696 17.9935 22.9609 18.2042 22.5858 18.5791C22.2107 18.954 22 19.4626 22 19.9928C22 20.5231 22.2107 21.0316 22.5858 21.4065C22.9609 21.7815 23.4696 21.9921 24 21.9921C24.5304 21.9921 25.0391 21.7815 25.4142 21.4065C25.7893 21.0316 26 20.5231 26 19.9928C26 19.4626 25.7893 18.954 25.4142 18.5791C25.0391 18.2042 24.5304 17.9935 24 17.9935Z" fill="black"/>
</svg>
