<svg width="128" height="34" viewBox="0 0 128 34" fill="none" xmlns="http://www.w3.org/2000/svg">
<g clip-path="url(#clip0_3_3)">
<path d="M72.2176 32.8128H77.9264C77.984 32.8192 78.0352 32.8064 78.0928 32.7936C78.144 32.7744 78.1952 32.7488 78.2336 32.7104C78.272 32.672 78.3104 32.6272 78.3296 32.576C78.3552 32.5248 78.368 32.4736 78.368 32.416V16.7808C78.368 12.3456 80.5632 10.0096 84.3584 10.0096C88.1536 10.0096 90.3104 12.3456 90.3104 16.7808V32.416C90.3104 32.4736 90.3232 32.5248 90.3488 32.576C90.3744 32.6272 90.4064 32.672 90.4448 32.7104C90.4832 32.7488 90.5344 32.7744 90.5856 32.7936C90.6368 32.8128 90.6944 32.8192 90.752 32.8128H96.4608C96.5184 32.8192 96.5696 32.8064 96.6272 32.7936C96.6784 32.7744 96.7296 32.7488 96.768 32.7104C96.8064 32.672 96.8448 32.6272 96.864 32.576C96.8896 32.5248 96.9024 32.4736 96.9024 32.416V16.8256C96.9024 10.1376 93.1456 4.27521 84.3584 4.27521C75.5712 4.27521 71.776 10.1312 71.776 16.8256V32.4224C71.776 32.48 71.7888 32.5312 71.8144 32.5824C71.84 32.6336 71.872 32.6784 71.9104 32.7168C71.9488 32.7552 72 32.7808 72.0512 32.8C72.1088 32.8128 72.16 32.8192 72.2176 32.8128Z" fill="#00A868"/>
<path d="M32.9152 33.1712C34.9952 33.1712 36.352 32.9344 36.9472 32.6976C37.0368 32.6592 37.1136 32.6016 37.1712 32.5248C37.2288 32.448 37.2608 32.3584 37.2672 32.2624V27.5904C37.2672 27.3152 37.1456 27.1552 36.7872 27.1552C36.5056 27.1552 35.7056 27.3152 35.072 27.3152C32.5952 27.3152 31.52 26.4064 31.52 24.2688V11.0848H36.7936C36.9088 11.0848 37.024 11.04 37.1008 10.9568C37.184 10.8736 37.2288 10.7648 37.2288 10.6496V5.5424C37.2288 5.4272 37.184 5.3184 37.1008 5.2352C37.0176 5.152 36.9088 5.1072 36.7936 5.1072H31.3216V0.672C31.3216 0.1984 31.1232 0 30.7648 0H25.3696C24.928 0 24.7296 0.1984 24.7296 0.672V24.9344C24.7232 30.8352 28.0384 33.1712 32.9152 33.1712Z" fill="#00A868"/>
<path d="M9.9904 33.4848C16.4224 33.4848 21.0176 29.568 21.0176 24.4608C21.0176 18.72 17.184 17.0624 11.9488 15.9488L9.3504 15.392C7.392 14.9568 6.3168 14.048 6.3168 12.4992C6.3168 10.5216 8.3136 9.45281 11.072 9.45281C14.944 9.45281 17.5808 11.1936 17.984 11.1936C18.0928 11.1872 18.2016 11.1488 18.2912 11.0848C18.3808 11.0208 18.4576 10.9376 18.5024 10.8352L19.5392 6.99521C19.7376 6.48321 19.6992 6.36161 19.3408 6.16321C17.024 4.97281 14.5472 4.30081 11.0336 4.30081C4.512 4.31361 0 8.03201 0 12.9856C0 17.6576 3.6352 20.2304 8.832 21.3376L11.4688 21.8944C13.5872 22.3296 14.7776 23.1616 14.7776 24.9408C14.7776 26.7584 13.3376 28.3456 9.9456 28.3456C5.152 28.3456 1.8752 26.4448 1.3568 26.4448C1.0368 26.4448 0.9152 26.6048 0.8 27.1168L0.1216 30.3232C-0.0768 30.9952 0.1216 31.4304 0.5632 31.6288C2.1952 32.5376 6.6688 33.4848 9.9904 33.4848Z" fill="#00A868"/>
<path d="M53.5616 27.9872C49.3696 27.9872 45.536 24.8576 45.536 18.9632C45.536 13.0688 49.3696 10.016 53.5616 10.016C57.792 10.016 61.5488 13.0624 61.5488 18.9632C61.5552 24.896 57.7984 27.9872 53.5616 27.9872ZM53.5616 33.6832C61.952 33.6832 68.0576 27.4688 68.0576 18.9568C68.0576 10.4448 61.9456 4.2688 53.5616 4.2688C45.2096 4.2688 39.0592 10.4448 39.0592 18.9568C39.0592 27.4688 45.216 33.6832 53.5616 33.6832Z" fill="#00A868"/>
<path d="M128 18.6432C128 9.89441 122.925 4.27521 114.854 4.27521C107.264 4.27521 100.717 10.0544 100.717 18.8416C100.717 28.224 107.424 33.6832 114.618 33.6832C120.653 33.6832 124.128 31.328 126.278 28.4608C126.694 27.904 126.778 27.6672 126.778 27.5072C126.778 27.3536 126.675 27.232 126.317 26.912L123.802 24.736C123.2 24.224 123.002 24.064 122.797 24.064C122.598 24.064 122.477 24.1856 122.317 24.384C120.602 26.6816 118.202 27.9872 114.97 27.9872C110.886 27.9872 108.166 25.2416 107.482 20.7808H125.914C127.194 20.7808 128 20.3776 128 18.6432ZM114.618 9.77921C118.976 9.77921 121.286 12.6912 121.408 15.9168H107.571C108.333 12.4544 110.701 9.77921 114.618 9.77921Z" fill="#00A868"/>
</g>
<defs>
<clipPath id="clip0_3_3">
<rect width="128" height="33.6832" fill="white"/>
</clipPath>
</defs>
</svg>
