<svg width="94" height="29" viewBox="0 0 94 29" fill="none" xmlns="http://www.w3.org/2000/svg">
<g clip-path="url(#clip0_49_5)">
<path d="M24.714 29C21.12 29 17.746 27.5784 15.2 25.0022C14.506 24.2972 14.506 23.1505 15.2 22.4397C15.894 21.7348 17.026 21.7348 17.726 22.4397C19.59 24.3306 22.072 25.3752 24.714 25.3752C27.356 25.3752 29.836 24.3326 31.702 22.4397C32.396 21.7348 33.528 21.7348 34.228 22.4397C34.922 23.1446 34.922 24.2914 34.228 25.0022C31.682 27.5843 28.308 29 24.714 29ZM32.294 4.8461C28.084 4.8461 24.754 8.13312 24.754 12.3921V16.9122C24.754 18.002 25.628 18.8817 26.702 18.8817C27.776 18.8817 28.65 18.002 28.65 16.9122V12.2527C28.65 10.028 30.38 8.50227 32.294 8.50227C34.21 8.50227 36.106 10.028 36.106 12.2527V16.9083C36.106 17.9981 36.98 18.8778 38.054 18.8778C39.128 18.8778 40.002 17.9981 40.002 16.9083V12.3901C39.994 8.13115 36.496 4.8461 32.294 4.8461ZM0 12.6454C0 16.1798 2.506 18.6323 5.818 18.8601C5.998 18.8739 6.518 18.8935 6.84 18.8797C7.836 18.8797 8.646 18.059 8.646 17.0477C8.646 16.0365 7.836 15.2157 6.84 15.2157H6.312C4.924 15.2157 3.934 14.0945 3.888 12.7318V8.45907H6.876C7.854 8.45907 8.644 7.65793 8.644 6.66633C8.644 5.67472 7.854 4.87359 6.876 4.87359H3.888V1.96946C3.888 0.879681 3.022 0 1.948 0C0.874 0 0 0.879681 0 1.96946V12.6454ZM16.462 4.8461C12.566 4.8461 9.404 8.05457 9.404 12.0072C9.404 15.9599 12.566 19.1684 16.462 19.1684C20.358 19.1684 23.52 15.9599 23.52 12.0072C23.52 8.05457 20.364 4.8461 16.462 4.8461ZM16.462 15.4808C14.54 15.4808 12.984 13.9296 12.984 12.0053C12.984 10.081 14.54 8.52976 16.462 8.52976C18.384 8.52976 19.94 10.081 19.94 12.0053C19.94 13.9296 18.384 15.4808 16.462 15.4808Z" fill="#20252A"/>
</g>
<path d="M44 14.8296H45.4434C45.8206 16.8012 47.0447 17.7639 49.1155 17.7177C50.1547 17.7023 50.9169 17.4674 51.4018 17.013C51.8945 16.5817 52.1409 16.058 52.1409 15.4419C52.1409 15.0029 52.037 14.6409 51.8291 14.356C51.6059 14.071 51.3056 13.8515 50.9284 13.6975C50.7744 13.6051 50.5858 13.5242 50.3626 13.4549C50.1393 13.3779 49.9122 13.3162 49.6813 13.27C49.204 13.1776 48.7152 13.0852 48.2148 12.9928C47.9761 12.9081 47.7452 12.8349 47.5219 12.7733C47.291 12.7271 47.0562 12.6655 46.8176 12.5884C46.3403 12.4421 45.913 12.2534 45.5358 12.0224C45.1586 11.7682 44.8584 11.4448 44.6351 11.052C44.4042 10.6515 44.2887 10.1625 44.2887 9.58484C44.2887 8.53743 44.6736 7.6941 45.4434 7.05487C46.1824 6.42335 47.2294 6.09988 48.5843 6.08448C51.3172 6.03057 52.8953 7.31288 53.3187 9.93141H51.8753C51.7521 8.98412 51.398 8.31408 50.8129 7.9213C50.2125 7.54392 49.4619 7.35523 48.5612 7.35523C46.7367 7.40144 45.8168 8.10229 45.8014 9.45776C45.8014 9.85824 45.9207 10.1894 46.1594 10.4513C46.3749 10.7054 46.6713 10.9211 47.0485 11.0982C47.826 11.4294 48.719 11.6951 49.7275 11.8953C50.2279 12.0108 50.7167 12.1456 51.194 12.2996C51.6636 12.4614 52.0793 12.6732 52.4411 12.935C52.8183 13.1892 53.1186 13.5203 53.3418 13.9285C53.5497 14.329 53.6536 14.8258 53.6536 15.4188C53.6382 16.5894 53.1724 17.4751 52.2564 18.0758C51.3249 18.6919 50.1278 19 48.6651 19C47.2102 18.9846 46.0901 18.5726 45.3048 17.7639C44.5119 16.9937 44.077 16.0156 44 14.8296Z" fill="#20252A"/>
<path d="M60.7436 17.556V18.7112C60.5743 18.742 60.3549 18.7882 60.0855 18.8498C59.8006 18.9345 59.4773 18.9846 59.1155 19C58.4226 19 57.8953 18.819 57.5335 18.457C57.1332 18.072 56.933 17.4404 56.933 16.5625V7.59783H55.2125V6.40794H56.933V3H58.3533V6.40794H60.6513V7.59783H58.3533V15.9964C58.338 16.574 58.4034 17.0053 58.5497 17.2903C58.6728 17.5752 59.0192 17.7177 59.5889 17.7177C59.9815 17.7177 60.3664 17.6638 60.7436 17.556Z" fill="#20252A"/>
<path d="M67.8915 19C66.2825 18.9846 64.9507 18.4301 63.8961 17.3365C62.7952 16.2659 62.2371 14.6679 62.2217 12.5422C62.2217 10.6939 62.6952 9.16125 63.642 7.9444C64.5889 6.73526 66.0054 6.11528 67.8915 6.08448C69.8006 6.11528 71.2286 6.73526 72.1755 7.9444C73.107 9.16125 73.5727 10.6939 73.5727 12.5422C73.5574 14.5138 73.0454 16.0657 72.037 17.1978C71.0285 18.3839 69.6467 18.9846 67.8915 19ZM72.06 12.5422C72.0754 11.0558 71.7598 9.82359 71.1132 8.84549C70.4665 7.86739 69.3926 7.37064 67.8915 7.35523C66.4134 7.38604 65.351 7.9136 64.7044 8.93791C64.0577 9.96221 63.7344 11.1637 63.7344 12.5422C63.7344 14.0826 64.0962 15.3187 64.8199 16.2505C65.5127 17.2132 66.5366 17.7023 67.8915 17.7177C69.3772 17.7023 70.4511 17.167 71.1132 16.1119C71.7444 15.0876 72.06 13.8977 72.06 12.5422Z" fill="#20252A"/>
<path d="M77.6721 12.6578V18.665H76.2633V6.40794H77.6721V8.70686H77.7298C78.1224 7.72876 78.6343 7.04332 79.2656 6.65054C79.8968 6.27316 80.7167 6.08448 81.7252 6.08448V7.62094C80.1624 7.62094 79.0885 8.10229 78.5035 9.06498C77.9338 10.0431 77.6567 11.2407 77.6721 12.6578Z" fill="#20252A"/>
<path d="M84.4965 11.6874H92.4873C92.4873 10.4397 92.164 9.4154 91.5173 8.61444C90.8553 7.79037 89.8891 7.37064 88.6189 7.35523C87.3718 7.37064 86.4095 7.79807 85.7321 8.63755C85.0547 9.46931 84.6428 10.4859 84.4965 11.6874ZM94 12.8657H84.4965C84.4965 14.2212 84.843 15.3572 85.5358 16.2736C86.2286 17.2209 87.2564 17.7023 88.6189 17.7177C90.5666 17.7023 91.8022 16.7627 92.3256 14.8989H93.9076C93.5766 16.085 93.0031 17.0554 92.1871 17.8101C91.348 18.588 90.1586 18.9846 88.6189 19C86.679 18.9692 85.251 18.3454 84.3349 17.1285C83.4188 15.9425 82.9684 14.4291 82.9838 12.5884C82.9838 10.7401 83.4881 9.19976 84.4965 7.96751C85.4742 6.74296 86.8483 6.11528 88.6189 6.08448C92.0985 6.11528 93.8922 8.37569 94 12.8657Z" fill="#20252A"/>
<defs>
<clipPath id="clip0_49_5">
<rect width="40" height="29" fill="white"/>
</clipPath>
</defs>
</svg>
