<svg width="40" height="29" viewBox="0 0 40 29" fill="none" xmlns="http://www.w3.org/2000/svg">
<g clip-path="url(#clip0_62_3628)">
<path d="M24.714 29C21.12 29 17.746 27.5784 15.2 25.0022C14.506 24.2972 14.506 23.1505 15.2 22.4397C15.894 21.7348 17.026 21.7348 17.726 22.4397C19.59 24.3306 22.072 25.3752 24.714 25.3752C27.356 25.3752 29.836 24.3326 31.702 22.4397C32.396 21.7348 33.528 21.7348 34.228 22.4397C34.922 23.1446 34.922 24.2914 34.228 25.0022C31.682 27.5843 28.308 29 24.714 29ZM32.294 4.8461C28.084 4.8461 24.754 8.13312 24.754 12.3921V16.9122C24.754 18.002 25.628 18.8817 26.702 18.8817C27.776 18.8817 28.65 18.002 28.65 16.9122V12.2527C28.65 10.028 30.38 8.50227 32.294 8.50227C34.21 8.50227 36.106 10.028 36.106 12.2527V16.9083C36.106 17.9981 36.98 18.8778 38.054 18.8778C39.128 18.8778 40.002 17.9981 40.002 16.9083V12.3901C39.994 8.13115 36.496 4.8461 32.294 4.8461ZM0 12.6454C0 16.1798 2.506 18.6323 5.818 18.8601C5.998 18.8739 6.518 18.8935 6.84 18.8797C7.836 18.8797 8.646 18.059 8.646 17.0477C8.646 16.0365 7.836 15.2157 6.84 15.2157H6.312C4.924 15.2157 3.934 14.0945 3.888 12.7318V8.45907H6.876C7.854 8.45907 8.644 7.65793 8.644 6.66633C8.644 5.67472 7.854 4.87359 6.876 4.87359H3.888V1.96946C3.888 0.879681 3.022 0 1.948 0C0.874 0 0 0.879681 0 1.96946V12.6454ZM16.462 4.8461C12.566 4.8461 9.404 8.05457 9.404 12.0072C9.404 15.9599 12.566 19.1684 16.462 19.1684C20.358 19.1684 23.52 15.9599 23.52 12.0072C23.52 8.05457 20.364 4.8461 16.462 4.8461ZM16.462 15.4808C14.54 15.4808 12.984 13.9296 12.984 12.0053C12.984 10.081 14.54 8.52976 16.462 8.52976C18.384 8.52976 19.94 10.081 19.94 12.0053C19.94 13.9296 18.384 15.4808 16.462 15.4808Z" fill="#20252A"/>
</g>
<defs>
<clipPath id="clip0_62_3628">
<rect width="40" height="29" fill="white"/>
</clipPath>
</defs>
</svg>
